<svg width="1200" height="420" viewBox="0 0 1200 420" fill="none" xmlns="http://www.w3.org/2000/svg">
  <defs>
    <linearGradient id="panel" x1="0" y1="0" x2="1200" y2="420" gradientUnits="userSpaceOnUse">
      <stop stop-color="#F8FAFC"/>
      <stop offset="1" stop-color="#E2E8F0"/>
    </linearGradient>
  </defs>
  <rect width="1200" height="420" rx="28" fill="url(#panel)"/>
  <rect x="60" y="70" width="260" height="280" rx="18" fill="#FFFFFF"/>
  <rect x="90" y="110" width="120" height="12" rx="6" fill="#CBD5F5"/>
  <rect x="90" y="140" width="180" height="22" rx="11" fill="#0F766E"/>
  <rect x="90" y="180" width="160" height="14" rx="7" fill="#94A3B8"/>
  <rect x="90" y="210" width="140" height="14" rx="7" fill="#CBD5F5"/>
  <rect x="360" y="70" width="260" height="280" rx="18" fill="#FFFFFF"/>
  <path d="M390 250C430 210 470 230 510 200C550 170 590 180 610 160" stroke="#38B2AC" stroke-width="6" stroke-linecap="round"/>
  <rect x="390" y="120" width="160" height="12" rx="6" fill="#CBD5F5"/>
  <rect x="390" y="145" width="120" height="12" rx="6" fill="#CBD5F5"/>
  <rect x="660" y="70" width="260" height="280" rx="18" fill="#FFFFFF"/>
  <rect x="690" y="110" width="160" height="16" rx="8" fill="#CBD5F5"/>
  <rect x="690" y="146" width="200" height="22" rx="11" fill="#1D4ED8"/>
  <rect x="690" y="186" width="180" height="12" rx="6" fill="#94A3B8"/>
  <rect x="960" y="70" width="180" height="280" rx="18" fill="#0F172A"/>
  <rect x="990" y="120" width="120" height="12" rx="6" fill="#94A3B8"/>
  <rect x="990" y="150" width="100" height="14" rx="7" fill="#E2E8F0"/>
  <rect x="990" y="190" width="140" height="80" rx="12" fill="#38B2AC"/>
</svg>
